<?xml version="1.0" encoding="UTF-8" standalone="no"?>
<svg
   xmlns:dc="http://purl.org/dc/elements/1.1/"
   xmlns:cc="http://creativecommons.org/ns#"
   xmlns:rdf="http://www.w3.org/1999/02/22-rdf-syntax-ns#"
   xmlns:svg="http://www.w3.org/2000/svg"
   xmlns="http://www.w3.org/2000/svg"
   xmlns:sodipodi="http://sodipodi.sourceforge.net/DTD/sodipodi-0.dtd"
   xmlns:inkscape="http://www.inkscape.org/namespaces/inkscape"
   id="Layer_1"
   version="1.1"
   viewBox="0 0 1200 628"
   xml:space="preserve"
   sodipodi:docname="covid-sp.svg"
   width="1200"
   height="628"
   inkscape:export-filename="/home/enrique/Desktop/covid-sp.png"
   inkscape:export-xdpi="96"
   inkscape:export-ydpi="96"
   inkscape:version="0.92.3 (2405546, 2018-03-11)"><metadata
     id="metadata40"><rdf:RDF><cc:Work
         rdf:about=""><dc:format>image/svg+xml</dc:format><dc:type
           rdf:resource="http://purl.org/dc/dcmitype/StillImage" /><dc:title></dc:title></cc:Work></rdf:RDF></metadata><defs
     id="defs38" /><sodipodi:namedview
     pagecolor="#ffffff"
     bordercolor="#666666"
     borderopacity="1"
     objecttolerance="10"
     gridtolerance="10"
     guidetolerance="10"
     inkscape:pageopacity="0"
     inkscape:pageshadow="2"
     inkscape:window-width="1920"
     inkscape:window-height="1025"
     id="namedview36"
     showgrid="false"
     inkscape:zoom="0.4609375"
     inkscape:cx="263.28133"
     inkscape:cy="227.36451"
     inkscape:window-x="0"
     inkscape:window-y="27"
     inkscape:window-maximized="1"
     inkscape:current-layer="Layer_1" /><style
     type="text/css"
     id="style2">
	.st0{fill:none;stroke:#000000;stroke-width:20;stroke-miterlimit:10;}
	.st1{fill:none;stroke:#FF2222;stroke-width:20;stroke-miterlimit:10;}
</style><g
     id="XMLID_27_"
     transform="matrix(0.66025587,0,0,0.66025587,261.94899,-24.051005)"><path
       class="st0"
       d="m 242.2,334 c 22.7,-34.4 51.8,-64.1 85.6,-87.6"
       id="XMLID_31_"
       inkscape:connector-curvature="0"
       style="fill:none;stroke:#000000;stroke-width:20;stroke-miterlimit:10" /><path
       class="st0"
       d="m 189.4,492.8 c 2.5,-42.3 13.1,-82.4 30.3,-118.7"
       id="XMLID_30_"
       inkscape:connector-curvature="0"
       style="fill:none;stroke:#000000;stroke-width:20;stroke-miterlimit:10" /><path
       class="st0"
       d="m 222.9,656.7 c -18.1,-36 -29.6,-75.8 -33,-118"
       id="XMLID_29_"
       inkscape:connector-curvature="0"
       style="fill:none;stroke:#000000;stroke-width:20;stroke-miterlimit:10" /><path
       class="st0"
       d="M 334,781.8 C 299.6,759.1 269.9,730 246.4,696.2"
       id="XMLID_28_"
       inkscape:connector-curvature="0"
       style="fill:none;stroke:#000000;stroke-width:20;stroke-miterlimit:10" /><path
       class="st0"
       d="M 492.8,834.6 C 450.5,832.1 410.4,821.5 374.1,804.3"
       id="XMLID_21_"
       inkscape:connector-curvature="0"
       style="fill:none;stroke:#000000;stroke-width:20;stroke-miterlimit:10" /><path
       class="st0"
       d="m 656.7,801.1 c -36,18.1 -75.8,29.6 -118,33"
       id="XMLID_19_"
       inkscape:connector-curvature="0"
       style="fill:none;stroke:#000000;stroke-width:20;stroke-miterlimit:10" /><path
       class="st0"
       d="m 781.8,690 c -22.7,34.4 -51.8,64.1 -85.6,87.6"
       id="XMLID_18_"
       inkscape:connector-curvature="0"
       style="fill:none;stroke:#000000;stroke-width:20;stroke-miterlimit:10" /><path
       class="st0"
       d="m 834.6,531.2 c -2.5,42.3 -13.1,82.4 -30.3,118.7"
       id="XMLID_14_"
       inkscape:connector-curvature="0"
       style="fill:none;stroke:#000000;stroke-width:20;stroke-miterlimit:10" /><path
       class="st0"
       d="m 801.1,367.3 c 18.1,36 29.6,75.9 33,118"
       id="XMLID_10_"
       inkscape:connector-curvature="0"
       style="fill:none;stroke:#000000;stroke-width:20;stroke-miterlimit:10" /><path
       class="st0"
       d="m 690,242.1 c 34.4,22.7 64.1,51.8 87.6,85.6"
       id="XMLID_8_"
       inkscape:connector-curvature="0"
       style="fill:none;stroke:#000000;stroke-width:20;stroke-miterlimit:10" /><path
       class="st0"
       d="m 531.2,189.4 c 42.3,2.5 82.4,13.1 118.7,30.3"
       id="XMLID_6_"
       inkscape:connector-curvature="0"
       style="fill:none;stroke:#000000;stroke-width:20;stroke-miterlimit:10" /><path
       class="st0"
       d="m 367.3,222.9 c 36,-18.1 75.8,-29.6 118,-33"
       id="XMLID_4_"
       inkscape:connector-curvature="0"
       style="fill:none;stroke:#000000;stroke-width:20;stroke-miterlimit:10" /><path
       class="st1"
       d="m 485.3,233.3 v -62.2 c 0,-15.1 -7,-29.4 -19.1,-38.4 -8,-5.9 -12.7,-13.6 -12.7,-21.9 0,-18.9 24.5,-34.2 54.8,-34.2 30.3,0 54.8,15.3 54.8,34.2 0,8.3 -4.8,16 -12.7,21.9 -12.1,9 -19.1,23.3 -19.1,38.4 v 62.2"
       id="XMLID_3_"
       inkscape:connector-curvature="0"
       style="fill:none;stroke:#ff2222;stroke-width:20;stroke-miterlimit:10" /><path
       class="st1"
       d="m 538.7,790.7 v 62.2 c 0,15.1 7,29.4 19.1,38.4 8,5.9 12.7,13.6 12.7,21.9 0,18.9 -24.5,34.2 -54.8,34.2 -30.3,0 -54.8,-15.3 -54.8,-34.2 0,-8.3 4.8,-16 12.7,-21.9 12.1,-9 19.1,-23.3 19.1,-38.4 v -62.2"
       id="XMLID_15_"
       inkscape:connector-curvature="0"
       style="fill:none;stroke:#ff2222;stroke-width:20;stroke-miterlimit:10" /><path
       class="st0"
       d="m 233.3,538.7 h -62.2 c -15.1,0 -29.4,7 -38.4,19.1 -5.9,8 -13.6,12.7 -21.9,12.7 -18.9,0 -34.2,-24.5 -34.2,-54.8 0,-30.3 15.3,-54.8 34.2,-54.8 8.3,0 16,4.8 21.9,12.7 9,12.1 23.3,19.1 38.4,19.1 h 62.2"
       id="XMLID_11_"
       inkscape:connector-curvature="0"
       style="fill:none;stroke:#000000;stroke-width:20;stroke-miterlimit:10" /><path
       class="st0"
       d="m 790.7,485.3 h 62.2 c 15.1,0 29.4,-6.9 38.4,-19.1 5.9,-7.9 13.6,-12.7 21.9,-12.7 18.9,0 34.2,24.5 34.2,54.8 0,30.3 -15.3,54.8 -34.2,54.8 -8.3,0 -16,-4.8 -21.9,-12.7 -9,-12.1 -23.3,-19.1 -38.4,-19.1 h -62.2"
       id="XMLID_7_"
       inkscape:connector-curvature="0"
       style="fill:none;stroke:#000000;stroke-width:20;stroke-miterlimit:10" /><path
       class="st0"
       d="m 349.5,284 -13.6,-23.5 -8.2,-14.1 -9.4,-16.2 c -7.5,-13.1 -20.7,-22 -35.7,-23.8 -9.9,-1.1 -17.8,-5.4 -22,-12.6 -9.4,-16.3 4.2,-41.8 30.4,-57 26.2,-15.1 55.1,-14.1 64.5,2.2 4.2,7.2 3.8,16.2 -0.1,25.4 -6,13.8 -4.8,29.7 2.7,42.8 l 9.1,15.7 8.1,14.1 13.9,24"
       id="XMLID_1_"
       inkscape:connector-curvature="0"
       style="fill:none;stroke:#000000;stroke-width:20;stroke-miterlimit:10" /><path
       class="st0"
       d="m 674.5,740 13.6,23.5 8.2,14.1 9.4,16.2 c 7.5,13.1 20.7,22 35.7,23.8 9.9,1.2 17.8,5.4 22,12.6 9.4,16.3 -4.2,41.8 -30.4,57 -26.2,15.1 -55.1,14.1 -64.5,-2.2 -4.2,-7.2 -3.8,-16.2 0.1,-25.3 6,-13.8 4.8,-29.7 -2.7,-42.8 l -9.1,-15.7 -8.1,-14.1 -13.9,-24"
       id="XMLID_16_"
       inkscape:connector-curvature="0"
       style="fill:none;stroke:#000000;stroke-width:20;stroke-miterlimit:10" /><path
       class="st1"
       d="m 284,674.5 -23.5,13.6 -14.1,8.2 -16.2,9.4 c -13.1,7.6 -22,20.7 -23.8,35.7 -1.1,9.9 -5.4,17.8 -12.6,22 -16.3,9.4 -41.8,-4.2 -57,-30.4 -15.1,-26.2 -14.1,-55.1 2.2,-64.5 7.2,-4.2 16.2,-3.8 25.4,0.1 13.8,6 29.7,4.8 42.8,-2.7 l 15.7,-9.1 14.1,-8.1 24,-13.9"
       id="XMLID_12_"
       inkscape:connector-curvature="0"
       style="fill:none;stroke:#ff2222;stroke-width:20;stroke-miterlimit:10" /><path
       class="st1"
       d="m 740,349.5 23.5,-13.6 14.1,-8.2 16.2,-9.4 c 13.1,-7.5 22,-20.7 23.8,-35.7 1.1,-9.9 5.4,-17.8 12.6,-22 16.3,-9.4 41.8,4.2 57,30.4 15.1,26.2 14.1,55.1 -2.2,64.5 -7.2,4.2 -16.2,3.8 -25.4,-0.1 -13.8,-6 -29.7,-4.8 -42.8,2.7 l -15.7,9.1 -14.1,8.1 -24,13.9"
       id="XMLID_5_"
       inkscape:connector-curvature="0"
       style="fill:none;stroke:#ff2222;stroke-width:20;stroke-miterlimit:10" /><path
       class="st1"
       d="m 257.3,395.8 -23.5,-13.6 -14.1,-8.1 -16.2,-9.4 c -13.1,-7.5 -29,-8.7 -42.8,-2.7 -9.1,3.9 -18.1,4.3 -25.3,0.1 -16.3,-9.4 -17.3,-38.3 -2.2,-64.5 15.1,-26.2 40.6,-39.8 57,-30.4 7.2,4.2 11.5,12.1 12.6,22 1.8,15 10.7,28.2 23.8,35.7 l 15.7,9.1 14.1,8.1 24,13.9"
       id="XMLID_17_"
       inkscape:connector-curvature="0"
       style="fill:none;stroke:#ff2222;stroke-width:20;stroke-miterlimit:10" /><path
       class="st1"
       d="m 766.7,628.2 23.5,13.6 14.1,8.2 16.2,9.3 c 13.1,7.5 29,8.7 42.8,2.7 9.1,-3.9 18.1,-4.3 25.3,-0.1 16.3,9.4 17.3,38.3 2.2,64.5 -15.1,26.2 -40.6,39.8 -57,30.4 -7.2,-4.2 -11.5,-12.1 -12.6,-22 -1.8,-15 -10.7,-28.2 -23.8,-35.7 l -15.7,-9.1 -14.1,-8.1 -24,-13.8"
       id="XMLID_9_"
       inkscape:connector-curvature="0"
       style="fill:none;stroke:#ff2222;stroke-width:20;stroke-miterlimit:10" /><path
       class="st0"
       d="m 395.8,766.7 -13.6,23.5 -8.2,14.1 -9.3,16.2 c -7.5,13.1 -8.7,28.9 -2.7,42.8 3.9,9.1 4.3,18.1 0.1,25.3 -9.4,16.3 -38.3,17.3 -64.5,2.2 -26.2,-15.1 -39.8,-40.6 -30.4,-57 4.2,-7.2 12.1,-11.5 22,-12.6 15,-1.8 28.2,-10.7 35.7,-23.8 l 9.1,-15.7 8.1,-14.1 13.9,-24"
       id="XMLID_13_"
       inkscape:connector-curvature="0"
       style="fill:none;stroke:#000000;stroke-width:20;stroke-miterlimit:10" /><path
       class="st0"
       d="m 628.2,257.3 13.6,-23.5 8.2,-14.1 9.3,-16.2 c 7.5,-13.1 8.7,-29 2.7,-42.8 -3.9,-9.1 -4.3,-18.1 -0.1,-25.4 9.4,-16.3 38.3,-17.3 64.5,-2.2 26.2,15.1 39.8,40.6 30.4,57 -4.2,7.2 -12.1,11.5 -22,12.6 -15,1.8 -28.2,10.7 -35.7,23.8 l -9.1,15.7 -8.1,14.1 -13.9,24"
       id="XMLID_2_"
       inkscape:connector-curvature="0"
       style="fill:none;stroke:#000000;stroke-width:20;stroke-miterlimit:10" /><circle
       class="st1"
       cx="485.39999"
       cy="351.29999"
       id="XMLID_20_"
       r="44.400002"
       style="fill:none;stroke:#ff2222;stroke-width:20;stroke-miterlimit:10" /><circle
       class="st1"
       cx="521.20001"
       cy="520"
       id="XMLID_26_"
       r="44.400002"
       style="fill:none;stroke:#ff2222;stroke-width:20;stroke-miterlimit:10" /><circle
       class="st1"
       cx="665"
       cy="439"
       id="XMLID_22_"
       r="44.400002"
       style="fill:none;stroke:#ff2222;stroke-width:20;stroke-miterlimit:10" /><circle
       class="st1"
       cx="349.89999"
       cy="493.70001"
       id="XMLID_23_"
       r="44.400002"
       style="fill:none;stroke:#ff2222;stroke-width:20;stroke-miterlimit:10" /><circle
       class="st1"
       cx="448.39999"
       cy="664.29999"
       id="XMLID_24_"
       r="44.400002"
       style="fill:none;stroke:#ff2222;stroke-width:20;stroke-miterlimit:10" /><circle
       class="st1"
       cx="652.09998"
       cy="611.90002"
       id="XMLID_25_"
       r="44.400002"
       style="fill:none;stroke:#ff2222;stroke-width:20;stroke-miterlimit:10" /></g></svg>